<?xml version="1.0" encoding="utf-8"?>
<!-- Generator: Adobe Illustrator 22.1.0, SVG Export Plug-In . SVG Version: 6.00 Build 0)  -->
<svg version="1.1" id="Layer_1" xmlns="http://www.w3.org/2000/svg" xmlns:xlink="http://www.w3.org/1999/xlink" x="0px" y="0px"
	 viewBox="0 0 89.9 96.6" style="enable-background:new 0 0 89.9 96.6;" xml:space="preserve">
<style type="text/css">
	.st0{fill:#576371;}
	.st1{opacity:0.9;}
</style>
<g>
	<g>
		<polygon class="st0" points="45,59.6 33,59.6 27.4,73.7 27.4,73.7 16.9,73.7 16.9,73.7 45,10.7 45,10.7 45,10.7 45,0 45,0 0,16 
			6.9,75.5 45,96.6 45,96.6 		"/>
		<polygon class="st0" points="36.8,50.9 45,50.9 45,50.9 45,31.2 		"/>
	</g>
	<g class="st1">
		<polygon class="st0" points="45,59.6 56.9,59.6 62.5,73.7 62.5,73.7 73,73.7 73.1,73.7 45,10.7 45,10.7 45,10.7 45,0 45,0 
			89.9,16 83.1,75.5 45,96.6 45,96.6 		"/>
		<polygon class="st0" points="53.2,50.9 45,50.9 45,50.9 45,31.2 		"/>
	</g>
</g>
</svg>
