<?xml version="1.0" encoding="utf-8"?>
<!-- Generator: Adobe Illustrator 22.1.0, SVG Export Plug-In . SVG Version: 6.00 Build 0)  -->
<svg version="1.1" id="Layer_1" xmlns="http://www.w3.org/2000/svg" xmlns:xlink="http://www.w3.org/1999/xlink" x="0px" y="0px"
	 viewBox="0 0 69 67.3" style="enable-background:new 0 0 69 67.3;" xml:space="preserve">
<style type="text/css">
	.st0{fill:#576371;}
</style>
<g id="P8SdNb.tif">
	<g>
		<path class="st0" d="M65,7.7c0,17.4,0,34.8,0,52.2c-0.9,2.1-2.3,3.6-4.5,4.3c-17.4,0-34.8,0-52.2,0c-2-0.8-3.5-2.3-4.3-4.3
			c0-17.5,0-35,0-52.4C5.4,4,8,3.1,11.6,3.1C27,3.2,42.5,3.2,58,3.1C61.5,3.1,63.9,4.3,65,7.7z M40.4,32.5c0.5-0.2,0.7-0.3,0.9-0.4
			c2.8-1,4.4-3.3,4.4-6.3c0-3.3-2.1-5.8-5.6-6.6c-4.9-1-9.9-0.3-14.9-0.5c-0.7,0-0.6,0.5-0.6,0.9c0,9.1,0,18.3,0,27.4
			c0,0.7,0.2,1,0.9,1c4.6-0.1,9.2,0.2,13.8-0.2c1.7-0.1,3.3-0.7,4.7-1.7c2.7-2,3.6-4.7,3-7.9c-0.6-3-2.6-4.8-5.5-5.4
			C41.2,32.8,41,32.7,40.4,32.5z"/>
		<path class="st0" d="M29.9,39.3c0-1.2,0-2.4,0-3.6c0-0.6,0.1-0.9,0.8-0.9c2.4,0.1,4.7-0.2,7.1,0.2c2.6,0.4,4,1.9,4,4.2
			c0,2.5-1.2,3.9-3.9,4.4c-2.4,0.4-4.9,0.1-7.3,0.2c-0.7,0-0.7-0.4-0.7-0.9C29.9,41.7,29.9,40.5,29.9,39.3z"/>
		<path class="st0" d="M34,22.9c1.1,0.1,2.5-0.1,3.8,0.3c1.7,0.6,2.7,1.9,2.8,3.7c0,1.8-0.9,3.1-2.7,3.7c-2.4,0.8-4.9,0.3-7.4,0.4
			c-0.6,0-0.6-0.4-0.6-0.8c0-2.1,0-4.3,0-6.4c0-0.6,0.3-0.9,0.9-0.8C31.8,23,32.7,22.9,34,22.9z"/>
	</g>
</g>
</svg>
