<svg enable-background="new 0 0 70.3 98.5" viewBox="0 0 70.3 98.5" xmlns="http://www.w3.org/2000/svg"><g fill="#576371"><path d="m18.9 8.9v-4.3h6.2v-4.6h-10.8v13.1h10.8v-4.2zm17.4-4.3h4.3v-4.6h-10.8v4.6c1.5 1.5 2.2 2.1 4.3 4.2-1.2 0-4.3 0-4.3 0v4.2h10.8v-4.1zm15.4 0h4.3v-4.6h-10.9v4.6c1.5 1.5 2.2 2.1 4.3 4.2-1.2 0-4.3 0-4.3 0v4.2h10.9v-4.1z"/><path d="m0 19.4 6.6 71.4 28.6 7.7 28.6-7.7 6.6-71.4zm56.1 23.1-21 9h-.1 20.3l-2.3 26.7-17.9 5.2-18-5.3-1.1-13.4h8.9l.6 7 9.6 2.4 10-2.8.6-11.3h-30.3l-.7-8.4 20.4-8.6 1.2-.5h-22.4l-1.1-8.6h44.2z"/></g></svg>