<svg enable-background="new 0 0 69 97.4" viewBox="0 0 69 97.4" xmlns="http://www.w3.org/2000/svg"><g fill="#576371"><path d="m6.4 0h4.4v4.3h4v-4.3h4.4v13.1h-4.4v-4.4h-4v4.4h-4.4zm18.6 4.4h-3.9v-4.4h12.1v4.4h-3.9v8.8h-4.3zm10.2-4.4h4.6l2.8 4.6 2.8-4.6h4.6v13.1h-4.4v-6.5l-3 4.7h-.1l-3-4.7v6.5h-4.3zm16.9 0h4.4v8.8h6.2v4.3h-10.6z"/><path d="m0 19.1 6.3 70.4 28.2 7.8 28.2-7.8 6.3-70.4zm55.9 16.7-.4 4.4-.2 1.9h-20.8-12.2l.8 8.8h11.4 17.7 2.3l-.2 2.3-2 22.7-.1 1.5-17.7 4.9-17.7-4.9-1.3-13.4h8.7l.6 6.9 9.6 2.6 9.6-2.6 1-11.2h-10.5-19.3l-2.2-23.9-.2-2.3h21.6 21.6z"/></g></svg>