<svg enable-background="new 0 0 79 79" viewBox="0 0 79 79" xmlns="http://www.w3.org/2000/svg"><path d="m71.8 0h-64.6c-4 0-7.2 3.2-7.2 7.2v64.7c0 4 3.2 7.2 7.2 7.2h64.7c4 0 7.2-3.2 7.2-7.2v-64.7c-.1-4-3.3-7.2-7.3-7.2zm-45.4 15.3c2.6 0 4.8 2.1 4.8 4.8s-2.2 4.8-4.8 4.8-4.8-2.1-4.8-4.8 2.2-4.8 4.8-4.8zm32.3 45.5c-4.9 0-7.2-2.9-7.2-6.9 0-1.1.1-2.3.5-3.5l2.3-8.4c.3-.9.4-1.8.4-2.6 0-2.7-1.6-4.3-4.3-4.3-3.3 0-5.5 2.4-6.7 7l-4.5 18.2h-7.9l1.4-5.7c-2.3 3.8-5.6 6.2-9.6 6.2-4.8 0-7.1-2.8-7.1-7 0-1.1.1-2.4.4-3.6l3.6-14.7h-5.6l1.7-6.3h13.5l-5.3 21.1c-.4 1.3-.5 2.5-.5 3.2 0 1.4.7 1.7 1.7 2 .6.1 5.7 0 8.4-6.1l3.5-14h-5.7l1.7-6.3h12.1l-1.5 7.3c2.1-4 6.4-7.8 10.6-7.8 4.5 0 8.2 3.2 8.2 9.3 0 1.6-.2 3.3-.8 5.2l-2.3 8.2c-.2.9-.4 1.6-.4 2.2 0 1.4.6 2.1 1.6 2.1 1.1 0 2.4-.8 4-5.1l3.1 1.2c-1.8 6.4-5.1 9.1-9.3 9.1z" fill="#576371"/></svg>