<?xml version="1.0" encoding="utf-8"?>
<!-- Generator: Adobe Illustrator 22.1.0, SVG Export Plug-In . SVG Version: 6.00 Build 0)  -->
<svg version="1.1" id="Layer_1" xmlns="http://www.w3.org/2000/svg" xmlns:xlink="http://www.w3.org/1999/xlink" x="0px" y="0px"
	 viewBox="0 0 79 79" style="enable-background:new 0 0 79 79;" xml:space="preserve">
<style type="text/css">
	.st0{fill:#576371;}
</style>
<path class="st0" d="M71.8,0H7.2C3.2,0,0,3.2,0,7.2v64.7c0,4,3.2,7.2,7.2,7.2h64.7c4,0,7.2-3.2,7.2-7.2V7.2C79,3.2,75.8,0,71.8,0z
	 M26.4,15.3c2.6,0,4.8,2.1,4.8,4.8c0,2.7-2.2,4.8-4.8,4.8s-4.8-2.1-4.8-4.8C21.6,17.4,23.8,15.3,26.4,15.3z M58.7,60.8
	c-4.9,0-7.2-2.9-7.2-6.9c0-1.1,0.1-2.3,0.5-3.5l2.3-8.4c0.3-0.9,0.4-1.8,0.4-2.6c0-2.7-1.6-4.3-4.3-4.3c-3.3,0-5.5,2.4-6.7,7
	l-4.5,18.2h-7.9l1.4-5.7c-2.3,3.8-5.6,6.2-9.6,6.2c-4.8,0-7.1-2.8-7.1-7c0-1.1,0.1-2.4,0.4-3.6h0L20,35.5h-5.6l1.7-6.3h13.5
	l-5.3,21.1c-0.4,1.3-0.5,2.5-0.5,3.2c0,1.4,0.7,1.7,1.7,2c0.6,0.1,5.7,0,8.4-6.1l3.5-14h-5.7l1.7-6.3h12.1L44,36.4
	c2.1-4,6.4-7.8,10.6-7.8c4.5,0,8.2,3.2,8.2,9.3c0,1.6-0.2,3.3-0.8,5.2l-2.3,8.2c-0.2,0.9-0.4,1.6-0.4,2.2c0,1.4,0.6,2.1,1.6,2.1
	c1.1,0,2.4-0.8,4-5.1l3.1,1.2C66.2,58.1,62.9,60.8,58.7,60.8z"/>
</svg>
