<?xml version="1.0" encoding="utf-8"?>
<!-- Generator: Adobe Illustrator 22.1.0, SVG Export Plug-In . SVG Version: 6.00 Build 0)  -->
<svg version="1.1" id="Layer_1" xmlns="http://www.w3.org/2000/svg" xmlns:xlink="http://www.w3.org/1999/xlink" x="0px" y="0px"
	 viewBox="0 0 69.3 98.1" style="enable-background:new 0 0 69.3 98.1;" xml:space="preserve">
<style type="text/css">
	.st0{fill:#586472;}
</style>
<g>
	<path class="st0" d="M34.3,98.1c-1.8-0.8-3.8-1.2-5.7-1.7c-7.2-2-14.4-4-21.5-6c-0.5-0.1-0.8-0.3-0.9-1c-0.8-9.2-1.6-18.4-2.5-27.7
		C3,53.5,2.3,45.2,1.5,36.9C1,31.3,0.6,25.7,0,20.2c-0.1-0.8,0.2-0.8,0.8-0.8c22.5,0,45,0,67.6,0c0.8,0,1,0.2,0.9,1
		c-0.6,6.8-1.2,13.7-1.8,20.5c-0.6,6.7-1.2,13.4-1.8,20.1c-0.5,5.9-1,11.8-1.6,17.7c-0.3,3.5-0.7,7.1-0.9,10.6
		c-0.1,0.7-0.3,1.1-1.1,1.3c-8.7,2.4-17.4,4.8-26.1,7.2c-0.3,0.1-0.8,0-1,0.4C34.7,98.1,34.5,98.1,34.3,98.1z M34.7,33.6
		C34.7,33.6,34.7,33.6,34.7,33.6c-7,0-14,0-20.9,0c-0.8,0-1.1,0.2-1,1.1c0.2,2.2,0.3,4.4,0.5,6.6c0,0.8,0.3,1.1,1.2,1.1
		c6.2,0,12.5,0,18.7,0c4.3,0,8.6,0,12.9,0c0.4,0,0.9-0.3,0.9,0.6c-0.4,3.6-0.7,7.1-1,10.7c-0.5,5.6-1.1,11.2-1.6,16.8
		c-0.1,0.6-0.2,0.8-0.8,1c-2.8,0.7-5.5,1.5-8.2,2.2c-0.4,0.1-0.8,0.1-1.3,0c-2.8-0.8-5.6-1.5-8.4-2.2c-0.5-0.1-0.7-0.4-0.7-0.9
		c-0.1-1.8-0.3-3.6-0.5-5.4c-0.1-0.6-0.3-0.9-1-0.9c-2.4,0-4.7,0-7.1,0c-0.7,0-0.8,0.3-0.8,0.9c0.3,4,0.7,7.9,1,11.9
		c0.1,0.8,0.3,1.1,1.1,1.4c5.5,1.5,11,3,16.6,4.5c0.3,0.1,0.6,0.2,0.9,0.1c5.6-1.6,11.2-3.1,16.8-4.6c0.6-0.2,0.8-0.4,0.8-1
		c0.3-4.1,0.7-8.1,1.1-12.2c0.5-5.8,1.1-11.6,1.6-17.4c0.4-4.4,0.7-8.8,1.2-13.2c0.1-0.8-0.1-1-0.8-1C48.6,33.6,41.6,33.6,34.7,33.6
		z"/>
	<path class="st0" d="M40.4,8.7C39,7.6,37.5,6.5,36,5.3C35.5,5,35.3,4.6,35.4,4c0.1-1.1,0-2.3,0-3.4C35.3,0.1,35.5,0,36,0
		c3.7,0,7.5,0,11.2,0c0.6,0,0.6,0.2,0.6,0.7c0,1.2,0,2.3,0,3.5c0,0.6-0.2,0.7-0.7,0.7c-1.4,0-2.9,0-4.6,0c1.7,1.4,3.2,2.6,4.7,3.7
		c0.4,0.3,0.6,0.6,0.5,1.1c-0.1,1.2,0.5,2.8-0.2,3.4c-0.6,0.6-2.2,0.2-3.4,0.2c-2.6,0-5.3,0-7.9,0c-0.7,0-1-0.1-1-0.9
		c0.1-0.9,0.1-1.8,0-2.6c0-0.6,0.1-0.9,0.8-0.8c1.4,0,2.8,0,4.2,0C40.4,8.9,40.4,8.8,40.4,8.7z"/>
	<path class="st0" d="M33.4,6.6c0,1.9,0,3.9,0,5.8c0,0.6-0.1,0.9-0.8,0.9c-3.6,0-7.1,0-10.7,0c-0.7,0-0.8-0.2-0.8-0.8
		c0-1.1,0-2.2,0-3.3c0-0.6,0.2-0.7,0.7-0.7c1.8,0,3.6,0,5.4,0c0.7,0,0.9-0.2,0.9-0.9c0-2.3,0-4.5,0-6.8C28.1,0.1,28.3,0,29,0
		c1.2,0.1,2.4,0.1,3.6,0c0.6,0,0.8,0.1,0.8,0.8C33.4,2.7,33.4,4.7,33.4,6.6z"/>
</g>
</svg>
