<?xml version="1.0" encoding="utf-8"?>
<!-- Generator: Adobe Illustrator 22.1.0, SVG Export Plug-In . SVG Version: 6.00 Build 0)  -->
<svg version="1.1" id="Layer_1" xmlns="http://www.w3.org/2000/svg" xmlns:xlink="http://www.w3.org/1999/xlink" x="0px" y="0px"
	 viewBox="0 0 86 83.6" style="enable-background:new 0 0 86 83.6;" xml:space="preserve">
<style type="text/css">
	.st0{fill:#576371;}
</style>
<g>
	<path class="st0" d="M37.7,30.5c0-5-3.1-7.5-8.3-7.5c-1.6,0-3,0.1-3.8,0.1v15.1c0.9,0.1,1.6,0.1,3.2,0.1
		C33.4,38.3,37.7,36.7,37.7,30.5z"/>
	<path class="st0" d="M0,83.6h86V0H0V83.6z M48.5,52.5c0-0.4,0.2-0.5,0.5-0.3c2.5,1.6,5.3,2.3,7.9,2.3c3.1,0,4.4-1.3,4.4-3
		c0-1.4-0.9-2.7-4.8-4.7c-5.5-2.7-7.9-5.4-7.9-9.8c0-5,3.9-9.2,10.8-9.2c3.4,0,5.7,0.5,7,1.1c0.3,0.2,0.4,0.5,0.4,0.8V35
		c0,0.3-0.2,0.5-0.6,0.4c-1.7-1.1-4.3-1.8-6.8-1.8c-3.1,0-4.1,1.6-4.1,2.9c0,1.4,0.7,2.4,4.8,4.5c6.1,3,8,5.8,8,10
		c0,6.3-4.8,9.6-11.2,9.6c-3.4,0-6.3-0.7-8-1.7c-0.3-0.1-0.3-0.3-0.3-0.6V52.5z M18.8,17.5L18.8,17.5c0-0.3,0.5-0.5,0.9-0.5
		c2.5-0.1,6.2-0.2,10.1-0.2c10.8,0,15,5.9,15,13.5c0,9.9-7.2,14.2-16,14.2c-1.5,0-2-0.1-3-0.1v15c0,0.3-0.1,0.5-0.5,0.5h-6
		c-0.3,0-0.5-0.1-0.5-0.5V17.5z"/>
</g>
</svg>
