<svg enable-background="new 0 0 86 83.6" viewBox="0 0 86 83.6" xmlns="http://www.w3.org/2000/svg"><g fill="#576371"><path d="m37.7 30.5c0-5-3.1-7.5-8.3-7.5-1.6 0-3 .1-3.8.1v15.1c.9.1 1.6.1 3.2.1 4.6 0 8.9-1.6 8.9-7.8z"/><path d="m0 83.6h86v-83.6h-86zm48.5-31.1c0-.4.2-.5.5-.3 2.5 1.6 5.3 2.3 7.9 2.3 3.1 0 4.4-1.3 4.4-3 0-1.4-.9-2.7-4.8-4.7-5.5-2.7-7.9-5.4-7.9-9.8 0-5 3.9-9.2 10.8-9.2 3.4 0 5.7.5 7 1.1.3.2.4.5.4.8v5.3c0 .3-.2.5-.6.4-1.7-1.1-4.3-1.8-6.8-1.8-3.1 0-4.1 1.6-4.1 2.9 0 1.4.7 2.4 4.8 4.5 6.1 3 8 5.8 8 10 0 6.3-4.8 9.6-11.2 9.6-3.4 0-6.3-.7-8-1.7-.3-.1-.3-.3-.3-.6v-5.8zm-29.7-35c0-.3.5-.5.9-.5 2.5-.1 6.2-.2 10.1-.2 10.8 0 15 5.9 15 13.5 0 9.9-7.2 14.2-16 14.2-1.5 0-2-.1-3-.1v15c0 .3-.1.5-.5.5h-6c-.3 0-.5-.1-.5-.5z"/></g></svg>