<?xml version="1.0" encoding="utf-8"?>
<!-- Generator: Adobe Illustrator 22.1.0, SVG Export Plug-In . SVG Version: 6.00 Build 0)  -->
<svg version="1.1" id="Layer_1" xmlns="http://www.w3.org/2000/svg" xmlns:xlink="http://www.w3.org/1999/xlink" x="0px" y="0px"
	 viewBox="0 0 121.3 90.9" style="enable-background:new 0 0 121.3 90.9;" xml:space="preserve">
<style type="text/css">
	.st0{fill:#576371;}
</style>
<path class="st0" d="M104.4,52.2c-4.2,0-7.9,1-11,2.6c-1.1-2.3-2.3-4.2-2.5-5.7c-0.2-1.7-0.5-2.7-0.2-4.8c0.3-2,1.4-4.9,1.4-5.2
	c0-0.2-0.3-1.3-2.7-1.3c-2.4,0-4.5,0.5-4.8,1.1c-0.2,0.6-0.7,2.1-1,3.6c-0.4,2.2-4.9,10.1-7.4,14.3c-0.8-1.6-1.5-3-1.7-4.2
	c-0.2-1.7-0.5-2.7-0.2-4.8c0.3-2,1.4-4.9,1.4-5.2c0-0.2-0.3-1.3-2.7-1.3c-2.4,0-4.5,0.5-4.8,1.1c-0.2,0.6-0.5,2.2-1,3.6
	c-0.5,1.5-6.4,14.6-8,18.1c-0.8,1.8-1.5,3.2-2,4.1c-0.5,0.9,0,0.1-0.1,0.2c-0.4,0.8-0.7,1.3-0.7,1.3v0C56.3,70.4,56,71,55.8,71
	c-0.1,0-0.4-1.6,0-3.8c0.9-4.6,3-11.7,3-12c0-0.1,0.4-1.4-1.4-2c-1.7-0.6-2.3,0.4-2.5,0.4c-0.1,0-0.3,0.4-0.3,0.4s1.9-8-3.7-8
	c-3.5,0-8.3,3.8-10.7,7.3c-1.5,0.8-4.7,2.6-8.2,4.5c-1.3,0.7-2.7,1.5-3.9,2.2L28,59.6C21.2,52.4,8.7,47.3,9.2,37.6
	c0.2-3.5,1.4-12.8,24.1-24.1c18.6-9.2,33.4-6.7,36-1.1c3.7,8.1-7.9,23-27.2,25.2c-7.3,0.8-11.2-2-12.2-3.1c-1-1.1-1.2-1.2-1.5-0.9
	c-0.6,0.3-0.2,1.3,0,1.9c0.6,1.5,2.9,4.1,7,5.5c3.5,1.2,12.2,1.8,22.6-2.2C69.5,34.2,78.7,21.6,76,11.1C73.3,0.4,55.5-3.1,38.8,2.9
	C28.8,6.4,18,12,10.2,19.3C1,27.9-0.5,35.4,0.1,38.5C2.3,49.7,17.7,57,23.8,62.4c-0.3,0.2-0.6,0.3-0.9,0.5
	C19.9,64.4,8.2,70.5,5.2,77c-3.3,7.3,0.5,12.6,3.1,13.3c7.9,2.2,16-1.8,20.4-8.3c4.4-6.5,3.8-15,1.8-18.8l-0.1-0.1l2.4-1.4
	c1.6-0.9,3.1-1.8,4.5-2.5c-0.8,2.1-1.3,4.5-1.6,8.1c-0.3,4.2,1.4,9.6,3.6,11.7c1,0.9,2.2,0.9,2.9,0.9c2.6,0,3.8-2.2,5.1-4.7
	c1.6-3.2,3-6.8,3-6.8s-1.8,9.9,3.1,9.9c1.8,0,3.6-2.3,4.4-3.5v0c0,0,0-0.1,0.1-0.2c0.1-0.1,0.2-0.3,0.3-0.4v0
	c0.7-1.2,2.3-4.1,4.7-8.7c3.1-6,6-13.6,6-13.6s0.3,1.8,1.2,4.9c0.5,1.8,1.7,3.8,2.5,5.7c-0.7,1-1.1,1.6-1.1,1.6l0,0
	c-0.6,0.8-1.2,1.6-1.9,2.4c-2.4,2.9-5.3,6.2-5.7,7.1c-0.5,1.1-0.4,1.9,0.5,2.6c0.6,0.5,1.8,0.6,3,0.5c2.2-0.1,3.7-0.7,4.5-1
	c1.2-0.4,2.5-1.1,3.8-2c2.4-1.8,3.8-4.2,3.7-7.6c-0.1-1.8-0.7-3.6-1.4-5.3c0.2-0.3,0.4-0.6,0.6-0.9c3.7-5.5,6.6-11.5,6.6-11.5
	s0.3,1.8,1.2,4.9c0.4,1.5,1.4,3.2,2.2,4.9c-3.5,2.9-5.7,6.2-6.5,8.4c-1.4,4-0.3,5.9,1.8,6.3c0.9,0.2,2.3-0.2,3.2-0.7
	c1.2-0.4,2.7-1.1,4.1-2.1c2.4-1.8,4.6-4.2,4.5-7.5c-0.1-1.5-0.5-3-1-4.4c3-1.2,6.8-1.9,11.8-1.4c10.5,1.2,12.6,7.8,12.2,10.6
	c-0.4,2.7-2.6,4.3-3.3,4.7c-0.7,0.5-1,0.6-0.9,0.9c0.1,0.5,0.4,0.5,1.1,0.4c0.9-0.1,5.5-2.3,5.7-7.3
	C121.6,59.3,115.4,52.1,104.4,52.2L104.4,52.2z M23.1,79.6c-3.5,3.8-8.4,5.3-10.5,4c-2.3-1.3-1.4-6.9,2.9-11c2.6-2.5,6-4.7,8.2-6.1
	c0.5-0.3,1.3-0.8,2.2-1.3c0.1-0.1,0.2-0.1,0.2-0.1c0.2-0.1,0.4-0.2,0.5-0.3C28.3,70.6,26.8,75.6,23.1,79.6L23.1,79.6z M48.6,62.3
	c-1.2,3-3.8,10.6-5.3,10.1c-1.3-0.4-2.1-6.1-0.3-11.8c0.9-2.9,3-6.3,4.1-7.6c1.9-2.1,4-2.8,4.5-2C52.3,52.2,49.3,60.5,48.6,62.3z
	 M69.6,72.4c-0.5,0.3-1,0.5-1.2,0.3c-0.2-0.1,0.2-0.5,0.2-0.5s2.6-2.8,3.7-4.1c0.6-0.8,1.3-1.6,2.1-2.6v0.3
	C74.3,69.2,71.1,71.4,69.6,72.4L69.6,72.4z M85.8,68.7c-0.4-0.3-0.3-1.2,0.9-3.9c0.5-1.1,1.6-2.9,3.6-4.6c0.2,0.7,0.4,1.4,0.4,2
	C90.7,66.4,87.7,68,85.8,68.7z"/>
</svg>
