<svg enable-background="new 0 0 121.3 90.9" viewBox="0 0 121.3 90.9" xmlns="http://www.w3.org/2000/svg"><path d="m104.4 52.2c-4.2 0-7.9 1-11 2.6-1.1-2.3-2.3-4.2-2.5-5.7-.2-1.7-.5-2.7-.2-4.8.3-2 1.4-4.9 1.4-5.2 0-.2-.3-1.3-2.7-1.3s-4.5.5-4.8 1.1c-.2.6-.7 2.1-1 3.6-.4 2.2-4.9 10.1-7.4 14.3-.8-1.6-1.5-3-1.7-4.2-.2-1.7-.5-2.7-.2-4.8.3-2 1.4-4.9 1.4-5.2 0-.2-.3-1.3-2.7-1.3s-4.5.5-4.8 1.1c-.2.6-.5 2.2-1 3.6-.5 1.5-6.4 14.6-8 18.1-.8 1.8-1.5 3.2-2 4.1s0 .1-.1.2c-.4.8-.7 1.3-.7 1.3-.1.7-.4 1.3-.6 1.3-.1 0-.4-1.6 0-3.8.9-4.6 3-11.7 3-12 0-.1.4-1.4-1.4-2-1.7-.6-2.3.4-2.5.4-.1 0-.3.4-.3.4s1.9-8-3.7-8c-3.5 0-8.3 3.8-10.7 7.3-1.5.8-4.7 2.6-8.2 4.5-1.3.7-2.7 1.5-3.9 2.2l-.1-.4c-6.8-7.2-19.3-12.3-18.8-22 .2-3.5 1.4-12.8 24.1-24.1 18.6-9.2 33.4-6.7 36-1.1 3.7 8.1-7.9 23-27.2 25.2-7.3.8-11.2-2-12.2-3.1s-1.2-1.2-1.5-.9c-.6.3-.2 1.3 0 1.9.6 1.5 2.9 4.1 7 5.5 3.5 1.2 12.2 1.8 22.6-2.2 11.5-4.6 20.7-17.2 18-27.7-2.7-10.7-20.5-14.2-37.2-8.2-10 3.5-20.8 9.1-28.6 16.4-9.2 8.6-10.7 16.1-10.1 19.2 2.2 11.2 17.6 18.5 23.7 23.9-.3.2-.6.3-.9.5-3 1.5-14.7 7.6-17.7 14.1-3.3 7.3.5 12.6 3.1 13.3 7.9 2.2 16-1.8 20.4-8.3s3.8-15 1.8-18.8l-.1-.1 2.4-1.4c1.6-.9 3.1-1.8 4.5-2.5-.8 2.1-1.3 4.5-1.6 8.1-.3 4.2 1.4 9.6 3.6 11.7 1 .9 2.2.9 2.9.9 2.6 0 3.8-2.2 5.1-4.7 1.6-3.2 3-6.8 3-6.8s-1.8 9.9 3.1 9.9c1.8 0 3.6-2.3 4.4-3.5s0-.1.1-.2.2-.3.3-.4c.7-1.2 2.3-4.1 4.7-8.7 3.1-6 6-13.6 6-13.6s.3 1.8 1.2 4.9c.5 1.8 1.7 3.8 2.5 5.7-.7 1-1.1 1.6-1.1 1.6-.6.8-1.2 1.6-1.9 2.4-2.4 2.9-5.3 6.2-5.7 7.1-.5 1.1-.4 1.9.5 2.6.6.5 1.8.6 3 .5 2.2-.1 3.7-.7 4.5-1 1.2-.4 2.5-1.1 3.8-2 2.4-1.8 3.8-4.2 3.7-7.6-.1-1.8-.7-3.6-1.4-5.3.2-.3.4-.6.6-.9 3.7-5.5 6.6-11.5 6.6-11.5s.3 1.8 1.2 4.9c.4 1.5 1.4 3.2 2.2 4.9-3.5 2.9-5.7 6.2-6.5 8.4-1.4 4-.3 5.9 1.8 6.3.9.2 2.3-.2 3.2-.7 1.2-.4 2.7-1.1 4.1-2.1 2.4-1.8 4.6-4.2 4.5-7.5-.1-1.5-.5-3-1-4.4 3-1.2 6.8-1.9 11.8-1.4 10.5 1.2 12.6 7.8 12.2 10.6-.4 2.7-2.6 4.3-3.3 4.7-.7.5-1 .6-.9.9.1.5.4.5 1.1.4.9-.1 5.5-2.3 5.7-7.3.3-6.8-5.9-14-16.9-13.9zm-81.3 27.4c-3.5 3.8-8.4 5.3-10.5 4-2.3-1.3-1.4-6.9 2.9-11 2.6-2.5 6-4.7 8.2-6.1.5-.3 1.3-.8 2.2-1.3.1-.1.2-.1.2-.1.2-.1.4-.2.5-.3 1.7 5.8.2 10.8-3.5 14.8zm25.5-17.3c-1.2 3-3.8 10.6-5.3 10.1-1.3-.4-2.1-6.1-.3-11.8.9-2.9 3-6.3 4.1-7.6 1.9-2.1 4-2.8 4.5-2 .7 1.2-2.3 9.5-3 11.3zm21 10.1c-.5.3-1 .5-1.2.3-.2-.1.2-.5.2-.5s2.6-2.8 3.7-4.1c.6-.8 1.3-1.6 2.1-2.6v.3c-.1 3.4-3.3 5.6-4.8 6.6zm16.2-3.7c-.4-.3-.3-1.2.9-3.9.5-1.1 1.6-2.9 3.6-4.6.2.7.4 1.4.4 2 0 4.2-3 5.8-4.9 6.5z" fill="#576371"/></svg>