<?xml version="1.0" encoding="utf-8"?>
<!-- Generator: Adobe Illustrator 22.1.0, SVG Export Plug-In . SVG Version: 6.00 Build 0)  -->
<svg version="1.1" id="Layer_1" xmlns="http://www.w3.org/2000/svg" xmlns:xlink="http://www.w3.org/1999/xlink" x="0px" y="0px"
	 viewBox="0 0 69 97.4" style="enable-background:new 0 0 69 97.4;" xml:space="preserve">
<style type="text/css">
	.st0{fill:#576371;}
</style>
<g id="Ddv4AS.tif">
	<g>
		<path class="st0" d="M1.9,78.3c0-21.6,0-43.2,0-64.8c0-0.2,0-0.3,0.3-0.3c21.6,0,43.2,0,64.8,0c0,21.6,0,43.1,0,64.7
			c0,0.4,0,0.4-0.4,0.4C45,78.3,23.5,78.3,1.9,78.3z M51.7,72.9c1.8,0.1,3.5-0.2,5.1-0.9c2-0.8,3.5-2.2,4.4-4.2
			c0.6-1.5,0.7-3,0.5-4.6c-0.3-2.3-1.3-4.2-3.3-5.6c-1.5-1.1-3.2-1.9-4.9-2.7c-1.1-0.5-2.3-1-3.3-1.6c-1-0.6-1.6-1.3-1.6-2.5
			c-0.1-1.3,0.7-2.4,2-2.6c1.7-0.3,3.1,0.1,4.1,1.5c0.2,0.2,0.4,0.5,0.5,0.7c0.1,0.1,0.2,0.1,0.3,0.1c1.4-0.9,2.9-1.8,4.2-2.8
			c0.1-0.1,0.2-0.2,0.1-0.4c-0.9-1.3-1.8-2.5-3.2-3.3c-1.1-0.7-2.3-1-3.6-1.1c-1.3-0.1-2.6-0.2-3.8,0.1c-2,0.4-3.7,1.3-5,2.9
			c-1.1,1.4-1.6,3-1.6,4.7c0,2,0.4,3.9,1.7,5.5c0.9,1.2,2.1,2,3.5,2.8c1.4,0.8,2.9,1.3,4.3,2c0.9,0.4,1.7,0.8,2.5,1.4
			c1.6,1.1,1.6,3.8-0.5,4.8c-0.8,0.4-1.6,0.5-2.4,0.5c-1.5,0-2.9-0.4-4.1-1.4c-0.7-0.6-1.3-1.3-1.8-2.1c-0.1-0.1-0.1-0.2-0.3-0.1
			c-1.5,0.9-3,1.8-4.5,2.6c-0.2,0.1-0.2,0.2-0.1,0.4c1,1.8,2.4,3.3,4.3,4.3C47.2,72.5,49.5,73,51.7,72.9z M24.6,60.6
			c0,3.9,0,7.8,0,11.7c0,0.3,0.1,0.3,0.3,0.3c1.8,0,3.5,0,5.3,0c0.4,0,0.4,0,0.4-0.3c0-7.8,0-15.6,0-23.4c0-0.4,0-0.3,0.4-0.3
			c2.6,0,5.2,0,7.8,0c0.2,0,0.3-0.1,0.3-0.3c0-1.6,0-3.2,0-4.7c0-0.2,0-0.3-0.3-0.3c-5.6,0-11.3,0-16.9,0c-1.7,0-3.4,0-5.1,0
			c-0.4,0-0.4,0-0.4,0.4c-0.1,1.5,0,3.1,0,4.6c0,0.2,0,0.3,0.3,0.3c2.6,0,5.2,0,7.8,0c0.3,0,0.3,0.1,0.3,0.3
			C24.6,52.8,24.6,56.7,24.6,60.6z"/>
		<path class="st0" d="M1.9,78.3c21.6,0,43.1,0,64.7,0c0.4,0,0.4,0,0.4-0.4c0-21.6,0-43.1,0-64.7c0,0,0.1,0,0.1,0c0,0.1,0,0.1,0,0.2
			c0,21.5,0,43,0,64.6c0,0.2,0,0.3-0.3,0.3c-21.5,0-43,0-64.6,0C2.1,78.3,2,78.4,1.9,78.3z"/>
	</g>
</g>
</svg>
