<svg enable-background="new 0 0 89.4 89.4" viewBox="0 0 89.4 89.4" xmlns="http://www.w3.org/2000/svg"><g fill="#576371"><path d="m6.4 44.7c0 15.1 8.8 28.3 21.6 34.5l-18.3-50.1c-2.2 4.9-3.4 10.2-3.3 15.6zm64.2-2c0-4.7-1.7-8-3.2-10.6-1.9-3.2-3.8-5.8-3.8-9 0-3.5 2.7-6.8 6.4-6.8h.5c-6.8-6.1-15.8-9.9-25.8-9.9-13.4 0-25.2 6.9-32 17.3h2.5c4 0 10.2-.5 10.2-.5 2.1-.1 2.3 2.9.2 3.2 0 0-2.1.2-4.4.4l14 41.5 8.4-25.2-6-16.4c-2.1-.1-4-.4-4-.4-2.1-.1-1.8-3.3.2-3.2 0 0 6.3.5 10.1.5 4 0 10.2-.5 10.2-.5 2.1-.1 2.3 2.9.2 3.2 0 0-2.1.2-4.4.4l13.9 41.2 3.8-12.8c1.7-5.3 3-9.1 3-12.4z"/><path d="m45.4 48-11.5 33.4c3.5 1 7.2 1.6 10.8 1.6 4.3 0 8.6-.7 12.7-2.2-.1-.2-.2-.3-.3-.5zm32.9-21.7c.2 1.2.3 2.5.3 3.9 0 3.9-.7 8.3-2.9 13.7l-11.8 33.9c11.4-6.6 19.1-19 19.1-33.1 0-6.4-1.6-12.8-4.7-18.4z"/><path d="m44.7 0c-24.7 0-44.7 20-44.7 44.7 0 24.6 20 44.7 44.7 44.7 24.6 0 44.7-20 44.7-44.7s-20.1-44.7-44.7-44.7zm0 87.3c-23.5 0-42.7-19.1-42.7-42.6s19.2-42.7 42.7-42.7 42.6 19.1 42.6 42.6c0 23.6-19.1 42.7-42.6 42.7z"/></g></svg>