<?xml version="1.0" encoding="utf-8"?>
<!-- Generator: Adobe Illustrator 22.1.0, SVG Export Plug-In . SVG Version: 6.00 Build 0)  -->
<svg version="1.1" id="Layer_1" xmlns="http://www.w3.org/2000/svg" xmlns:xlink="http://www.w3.org/1999/xlink" x="0px" y="0px"
	 viewBox="0 0 89.4 89.4" style="enable-background:new 0 0 89.4 89.4;" xml:space="preserve">
<style type="text/css">
	.st0{fill:#576371;}
</style>
<g>
	<g>
		<g>
			<path class="st0" d="M6.4,44.7C6.4,59.8,15.2,73,28,79.2L9.7,29.1C7.5,34,6.3,39.3,6.4,44.7z M70.6,42.7c0-4.7-1.7-8-3.2-10.6
				c-1.9-3.2-3.8-5.8-3.8-9c0-3.5,2.7-6.8,6.4-6.8c0.2,0,0.3,0,0.5,0C63.7,10.2,54.7,6.4,44.7,6.4c-13.4,0-25.2,6.9-32,17.3
				c0.9,0,1.7,0,2.5,0c4,0,10.2-0.5,10.2-0.5c2.1-0.1,2.3,2.9,0.2,3.2c0,0-2.1,0.2-4.4,0.4l14,41.5l8.4-25.2l-6-16.4
				c-2.1-0.1-4-0.4-4-0.4c-2.1-0.1-1.8-3.3,0.2-3.2c0,0,6.3,0.5,10.1,0.5c4,0,10.2-0.5,10.2-0.5c2.1-0.1,2.3,2.9,0.2,3.2
				c0,0-2.1,0.2-4.4,0.4l13.9,41.2l3.8-12.8C69.3,49.8,70.6,46,70.6,42.7z"/>
			<path class="st0" d="M45.4,48L33.9,81.4c3.5,1,7.2,1.6,10.8,1.6c4.3,0,8.6-0.7,12.7-2.2c-0.1-0.2-0.2-0.3-0.3-0.5L45.4,48z
				 M78.3,26.3c0.2,1.2,0.3,2.5,0.3,3.9c0,3.9-0.7,8.3-2.9,13.7L63.9,77.8C75.3,71.2,83,58.8,83,44.7C83,38.3,81.4,31.9,78.3,26.3
				L78.3,26.3z"/>
			<path class="st0" d="M44.7,0C20,0,0,20,0,44.7c0,24.6,20,44.7,44.7,44.7c24.6,0,44.7-20,44.7-44.7C89.4,20,69.3,0,44.7,0z
				 M44.7,87.3C21.2,87.3,2,68.2,2,44.7C2,21.2,21.2,2,44.7,2c23.5,0,42.6,19.1,42.6,42.6C87.3,68.2,68.2,87.3,44.7,87.3L44.7,87.3z
				"/>
		</g>
	</g>
</g>
</svg>
